<svg xmlns="http://www.w3.org/2000/svg" width="26.54" height="35.386" viewBox="0 0 26.54 35.386">
  <path id="Icon_fa-regular-file-audio" data-name="Icon fa-regular-file-audio" d="M4.423,32.069H22.116a1.109,1.109,0,0,0,1.106-1.106v-19.9H17.693a2.209,2.209,0,0,1-2.212-2.212V3.317H4.423A1.109,1.109,0,0,0,3.317,4.423v26.54A1.109,1.109,0,0,0,4.423,32.069ZM0,4.423A4.427,4.427,0,0,1,4.423,0H15.862a4.425,4.425,0,0,1,3.131,1.292l6.255,6.255a4.425,4.425,0,0,1,1.292,3.131V30.963a4.427,4.427,0,0,1-4.423,4.423H4.423A4.427,4.427,0,0,1,0,30.963ZM13.27,18.8v8.847a1.106,1.106,0,0,1-.684,1.023,1.094,1.094,0,0,1-1.2-.242l-2.44-2.44h-1.2a1.109,1.109,0,0,1-1.106-1.106V21.563a1.109,1.109,0,0,1,1.106-1.106h1.2l2.44-2.44a1.1,1.1,0,0,1,1.887.781Zm5.93-.276a9.409,9.409,0,0,1,0,9.4,1.66,1.66,0,0,1-2.875-1.659,6.077,6.077,0,0,0,0-6.082A1.66,1.66,0,1,1,19.2,18.522Z"/>
</svg>
