<svg xmlns="http://www.w3.org/2000/svg" xmlns:xlink="http://www.w3.org/1999/xlink" width="77" height="73" viewBox="0 0 77 73">
  <defs>
    <filter id="Rectangle_6280" x="0" y="0" width="77" height="73" filterUnits="userSpaceOnUse">
      <feOffset dy="3" input="SourceAlpha"/>
      <feGaussianBlur stdDeviation="5" result="blur"/>
      <feFlood flood-opacity="0.161"/>
      <feComposite operator="in" in2="blur"/>
      <feComposite in="SourceGraphic"/>
    </filter>
    <filter id="Rectangle_6280-2" x="0" y="0" width="77" height="73" filterUnits="userSpaceOnUse">
      <feOffset dy="3" input="SourceAlpha"/>
      <feGaussianBlur stdDeviation="5" result="blur-2"/>
      <feFlood flood-opacity="0.161" result="color"/>
      <feComposite operator="out" in="SourceGraphic" in2="blur-2"/>
      <feComposite operator="in" in="color"/>
      <feComposite operator="in" in2="SourceGraphic"/>
    </filter>
  </defs>
  <g id="Group_6692" data-name="Group 6692" transform="translate(-1464 -374)">
    <g data-type="innerShadowGroup">
      <g transform="matrix(1, 0, 0, 1, 1464, 374)" filter="url(#Rectangle_6280)">
        <path id="Rectangle_6280-3" data-name="Rectangle 6280" d="M0,0H42a5,5,0,0,1,5,5V38a5,5,0,0,1-5,5H0a0,0,0,0,1,0,0V0A0,0,0,0,1,0,0Z" transform="translate(15 12)" fill="#fff"/>
      </g>
      <g transform="matrix(1, 0, 0, 1, 1464, 374)" filter="url(#Rectangle_6280-2)">
        <path id="Rectangle_6280-4" data-name="Rectangle 6280" d="M0,0H42a5,5,0,0,1,5,5V38a5,5,0,0,1-5,5H0a0,0,0,0,1,0,0V0A0,0,0,0,1,0,0Z" transform="translate(15 12)" fill="#fff"/>
      </g>
    </g>
    <path id="Icon_material-delete-forever" data-name="Icon material-delete-forever" d="M9,28.5a3.009,3.009,0,0,0,3,3H24a3.009,3.009,0,0,0,3-3v-18H9Zm3.69-10.68L14.805,15.7,18,18.885l3.18-3.18L23.3,17.82,20.115,21l3.18,3.18L21.18,26.3,18,23.115,14.82,26.3,12.7,24.18,15.885,21ZM23.25,6l-1.5-1.5h-7.5L12.75,6H7.5V9h21V6Z" transform="translate(1484.5 390.5)" fill="#818181"/>
  </g>
</svg>
