<svg xmlns="http://www.w3.org/2000/svg" width="29.488" height="35.386" viewBox="0 0 29.488 35.386">
  <path id="Icon_material-contacts" data-name="Icon material-contacts" d="M29.54,0H5.949V2.949H29.54ZM5.949,35.386H29.54V32.437H5.949ZM29.54,5.9H5.949A2.958,2.958,0,0,0,3,8.847V26.54a2.958,2.958,0,0,0,2.949,2.949H29.54a2.958,2.958,0,0,0,2.949-2.949V8.847A2.958,2.958,0,0,0,29.54,5.9Zm-11.8,4.055a3.317,3.317,0,1,1-3.317,3.317A3.322,3.322,0,0,1,17.744,9.952Zm7.372,15.113H10.372V22.854c0-2.462,4.91-3.686,7.372-3.686s7.372,1.224,7.372,3.686Z" transform="translate(-3)"/>
</svg>
