<svg xmlns="http://www.w3.org/2000/svg" xmlns:xlink="http://www.w3.org/1999/xlink" width="77" height="73" viewBox="0 0 77 73">
  <defs>
    <filter id="Rectangle_6280" x="0" y="0" width="77" height="73" filterUnits="userSpaceOnUse">
      <feOffset dy="3" input="SourceAlpha"/>
      <feGaussianBlur stdDeviation="5" result="blur"/>
      <feFlood flood-opacity="0.161"/>
      <feComposite operator="in" in2="blur"/>
      <feComposite in="SourceGraphic"/>
    </filter>
    <filter id="Rectangle_6280-2" x="0" y="0" width="77" height="73" filterUnits="userSpaceOnUse">
      <feOffset dy="3" input="SourceAlpha"/>
      <feGaussianBlur stdDeviation="5" result="blur-2"/>
      <feFlood flood-opacity="0.161" result="color"/>
      <feComposite operator="out" in="SourceGraphic" in2="blur-2"/>
      <feComposite operator="in" in="color"/>
      <feComposite operator="in" in2="SourceGraphic"/>
    </filter>
  </defs>
  <g id="Group_6689" data-name="Group 6689" transform="translate(-1323 -374)">
    <g data-type="innerShadowGroup">
      <g transform="matrix(1, 0, 0, 1, 1323, 374)" filter="url(#Rectangle_6280)">
        <rect id="Rectangle_6280-3" data-name="Rectangle 6280" width="47" height="43" transform="translate(15 12)" fill="#fff"/>
      </g>
      <g transform="matrix(1, 0, 0, 1, 1323, 374)" filter="url(#Rectangle_6280-2)">
        <rect id="Rectangle_6280-4" data-name="Rectangle 6280" width="47" height="43" transform="translate(15 12)" fill="#fff"/>
      </g>
    </g>
    <path id="Icon_material-file-copy" data-name="Icon material-file-copy" d="M20.182,1.5H5.455A2.462,2.462,0,0,0,3,3.955V21.136H5.455V3.955H20.182ZM18.955,6.409l7.364,7.364V26.045A2.462,2.462,0,0,1,23.864,28.5H10.351a2.451,2.451,0,0,1-2.442-2.455L7.921,8.864a2.451,2.451,0,0,1,2.442-2.455ZM17.727,15h6.75l-6.75-6.75Z" transform="translate(1346.841 392.5)" fill="#818181"/>
  </g>
</svg>
