<svg xmlns="http://www.w3.org/2000/svg" xmlns:xlink="http://www.w3.org/1999/xlink" width="310" height="60" viewBox="0 0 310 60">
  <defs>
    <filter id="Rectangle_3737" x="0" y="0" width="310" height="60" filterUnits="userSpaceOnUse">
      <feOffset dy="3" input="SourceAlpha"/>
      <feGaussianBlur stdDeviation="3" result="blur"/>
      <feFlood flood-opacity="0.161"/>
      <feComposite operator="in" in2="blur"/>
      <feComposite in="SourceGraphic"/>
    </filter>
  </defs>
  <g id="Group_6676" data-name="Group 6676" transform="translate(-1187 -681)">
    <g transform="matrix(1, 0, 0, 1, 1187, 681)" filter="url(#Rectangle_3737)">
      <rect id="Rectangle_3737-2" data-name="Rectangle 3737" width="292" height="42" rx="21" transform="translate(9 6)" fill="#f48020"/>
    </g>
    <text id="Create_New_QR_Code" data-name="Create New QR Code" transform="translate(1254 716)" fill="#312a3c" font-size="22" font-family="Roboto-Bold, Roboto" font-weight="700"><tspan x="0" y="0">Create New QR Code</tspan></text>
    <path id="Union_7" data-name="Union 7" d="M-9696.291-679.95v-.868h.868v.868Zm-.869,0v-.868h.869v.868Zm-.868,0v-.868h.868v.868Zm-.868,0v-.868h.868v.868Zm-.869,0v-.868h.869v.868Zm-.868,0v-.868h.868v.868Zm-5.211,0h-.868v-.868h1.736v.868Zm-1.737,0h-.867v-.868h1.736v.868Zm-2.605,0v-.868h.869v.868Zm-1.736,0v-.868h.869v.868Zm-.868,0v-.868h.868v.868Zm-.868,0v-.868h.868v.868Zm-.869,0v-.868h.869v.868Zm-.869,0v-.868h.869v.868Zm-.867,0h-.869v-.868h1.736v.868Zm19.975-.868v-.868h.868v.868Zm-2.605,0v-.868h.868v.868Zm-.869,0v-.868h.869v.868Zm-.868,0v-.868h.868v.868Zm-1.737,0v-.868h.869v.868Zm-.868,0v-.868h.868v.868Zm-.868,0v-.868h.868v.868Zm-.869,0v-.868h.869v.868Zm-2.605,0v-.868h.869v.868Zm-2.605,0v-.868h.869v.868Zm-1.736,0v-.868h.869v.868Zm-5.211,0v-.868h.869v.868Zm20.844-.868v-.869h.868v.869Zm-1.737,0v-.869h.868v.869Zm-.868,0v-.869h.868v.869Zm-6.08,0v-.869h.869v.869Zm-5.211,0v-.869h.869v.869Zm-1.736,0v-.869h.869v.869Zm-1.736,0v-.869h.868v.869Zm-.869,0v-.869h.869v.869Zm-.869,0v-.869h.869v.869Zm-1.736,0v-.869h.869v.869Zm20.844-.869v-.868h.868v.868Zm-.869,0v-.868h.869v.868Zm-.868,0v-.868h.868v.868Zm-.868,0v-.868h.868v.868Zm-.869,0v-.868h.869v.868Zm-1.736,0v-.868h.868v.868Zm-1.737,0v-.868h.868v.868Zm-.868,0v-.868h.868v.868Zm-1.737,0h-.868v-.868h1.736v.868Zm-3.474,0v-.868h.869v.868Zm-.869,0v-.868h.869v.868Zm-1.736,0v-.868h.869v.868Zm-1.736,0v-.868h.868v.868Zm-.869,0v-.868h.869v.868Zm-.869,0v-.868h.869v.868Zm-1.736,0v-.868h.869v.868Zm19.106-.868v-.868h.868v.868Zm-1.737,0v0h-1.736v-.868h1.736v-1.737h.869v.868h.868v-.868h.868v.869h-.868v.868h-.868v.868Zm-2.605,0v-.868h.869v.868Zm-.868,0v0h-.868v-.868h.868v-1.737h.868v2.605Zm-1.737,0v0h-1.736v-.868h1.736v-1.737h.869v2.605Zm-2.605,0v-.868h-.867v-.868h.867v-.868h.869v2.605Zm-2.605,0v-.868h.869v.868Zm-1.736,0v-2.605h.869v2.605Zm-1.736,0v-.868h.868v.868Zm-.869,0v-.868h.869v.868Zm-.869,0v-.868h.869v.868Zm-1.736,0v-2.605h1.736v.869h-.867v1.737Zm20.844-.868v-1.737h.868v1.737Zm-.869-.868v-.869h.869v.869Zm-4.342,0v-.869h.868v.869Zm-4.343,0h-.868v-.869h1.736v.869Zm-3.474,0v-.869h.869v.869Zm-.869,0v-.869h.869v.869Zm-2.6,0v-.869h.868v.869Zm-.868,0v-.869h.868v.869Zm-.869,0v-.869h.869v.869Zm-.869,0v-.869h.869v.869Zm16.5-.869v-.868h.868v.868Zm-.869,0v-.868h.869v.868Zm-3.474,0v-.868h.868v.868Zm-2.605,0v-.868h.868v.868Zm-2.6,0v-.868h.867v.868Zm-1.738,0v-.868h.869v.868Zm12.159-.868v-.869h.868v.869Zm-1.737,0v-.869h.869v.869Zm-.868,0h-.868v-.869h1.736v.869Zm-1.737,0v-.869h.869v.869Zm-.868,0v-.869h.868v.869Zm-.868,0v-.869h.868v.869Zm-.869,0v-.869h.869v.869Zm-.868,0h-.868v-.869h1.736v.869Zm-5.21,0h-.869v-.869h1.736v.869Zm-4.344,0v-.869h.869v.869Zm-1.736,0v-.869h.869v.869Zm20.844-.869v-.868h.868v.868Zm-3.475,0v-.868h.869v.868Zm-.868,0v-.868h.868v.868Zm-1.737,0v-.868h.869v.868Zm-2.605,0v-.868h.869v.868Zm-1.736,0v-.868h.869v.868Zm-1.736,0v-.868h.867v.868Zm-.869,0v-.868h.869v.868Zm-1.736,0v-.868h.867v.868Zm-2.605,0v-.868h.868v.868Zm-3.475,0v-.868h.869v.868Zm20.844-.868v-.869h.868v.869Zm-.869,0v-.869h.869v.869Zm-1.736,0v-.869h.868v.869Zm-.869,0v-.869h.869v.869Zm-.868,0h-.868v-.869h1.736v.869Zm-1.737,0v-.869h.869v.869Zm-1.736,0v-.869h.868v.869Zm-1.737,0v-.869h.868v.869Zm-2.6,0v-.869h.867v.869Zm-1.738,0v-.869h.869v.869Zm-1.736,0v-.869h.869v.869Zm-.868,0v-.869h.868v.869Zm-4.343,0v-.869h.869v.869Zm19.975-.869v-1.737h.869v0h.868v.869h-.868v.868Zm-1.736,0v-.868h.868v-.868h.868v.869h-.868v.868Zm-1.737,0v-.868h-.868v.868h-.869v0h-.868v-.868h.868v-.868h.869v0h1.736v0h.869v.869h-.869v.868Zm-6.079,0v-.868h.868v-.868h.868v.869h-.867v.868Zm-1.736,0v-.868h.867v-.868h.869v.869h-.869v.868Zm-2.605,0v-.868h-.869v-.869h.869v.868h.867v.868Zm-2.605,0v-.868h.868v-.868h.868v.869h-.868v.868Zm-1.738,0v-.868h.869v-.868h.869v.869h-.869v.868Zm-.867,0h-.869v-1.737h.869v.868h.867v.868Zm12.158-.868v-.869h.868v.869Zm-.869,0v-.869h.869v.869Zm-4.342,0v-.869h.869v.869Zm13.027-.869v-.868h.868v.868Zm-4.343,0v-.868h.868v.868Zm-1.737,0v-.868h.869v.868Zm-.868,0v-.868h.868v.868Zm-.868,0v-.868h.868v.868Zm-3.475,0h-.867v-.868h1.736v.868Zm-1.736,0v-.868h.869v.868Zm-1.736,0v-.868h.867v.868Zm-2.605,0v-.868h.868v.868Zm-.869,0v-.868h.869v.868Zm-2.605,0v-.868h.869v.868Zm20.844-.868v-.869h.868v.869Zm-.869,0v-.869h.869v.869Zm-1.736,0v-.869h.868v.869Zm-.869,0v-.869h.869v.869Zm-.868,0h-.868v-.869h1.736v.869Zm-1.737,0v-.869h.869v.869Zm-.868,0v-.869h.868v.869Zm-.868,0v-.869h.868v.869Zm-.869,0v-.869h.869v.869Zm-.868,0h-.868v-.869h1.736v.869Zm-1.737,0v-.869h.869v.869Zm-1.736,0v-.869h.869v.869Zm-.869,0v-.869h.869v.869Zm-1.736,0v-.869h.869v.869Zm-.868,0v-.869h.868v.869Zm-.868,0v-.869h.868v.869Zm-3.475,0v-.869h.869v.869Zm19.975-.869v-.868h.869v.868Zm-3.474,0v-.868h.868v.868Zm-1.737,0v-.868h.869v.868Zm-.868,0v-.868h.868v.868Zm-2.605,0v-.868h.868v.868Zm-3.474,0v-.868h.869v.868Zm-.869,0v-.868h.869v.868Zm-.867,0v-.868h.867v.868Zm-3.475,0v-.868h.869v.868Zm17.369-.868v-.868h.869v.868Zm-1.736,0v-.868h.868v.868Zm-1.737,0v-.868h.868v.868Zm-1.737,0v-.868h.869v.868Zm-1.736,0v-.868h.868v.868Zm-1.737,0h-.868v-.868h1.736v.868Zm-2.6,0v-.868h.867v.868Zm-.869,0v-.868h.869v.868Zm-.869,0v-.868h.869v.868Zm-.867,0h-.869v-.868h1.736v.868Zm-2.605,0v-.868h.868v.868Zm-.869,0v-.868h.869v.868Zm-.869,0v-.868h.869v.868Zm-.867,0h-.869v-.868h1.736v.868Zm13.026-.868v0h-.868v-.869h.868v-.868h.868v1.737Zm-1.737,0v-1.737h.869v1.737Zm-1.736,0v-1.737h.869v1.737Zm10.422-.868v-.868h.868v.868Zm-.869,0v-.868h.869v.868Zm-.868,0v-.868h.868v.868Zm-.868,0v-.868h.868v.868Zm-.869,0v-.868h.869v.868Zm-.868,0h-.868v-.868h1.736v.868Zm-7.815,0v-.868h.867v.868Zm-1.738,0v-.868h.869v.868Zm-1.736,0v-.868h.869v.868Zm-.868,0v-.868h.868v.868Zm-.868,0v-.868h.868v.868Zm-.869,0v-.868h.869v.868Zm-.869,0v-.868h.869v.868Zm-.867,0h-.869v-.868h1.736v.868Zm19.975-.869v-.868h.868v.868Zm-5.211,0v-.868h.868v.868Zm-1.737,0v-.868h.868v.868Zm-.868,0v-.868h.868v.868Zm-1.737,0v-.868h.868v.868Zm-2.6,0v-.868h.867v.868Zm-3.475,0v-.868h.869v.868Zm-5.211,0v-.868h.869v.868Zm20.844-.868v-.869h.868v.869Zm-1.737,0v-.869h.868v.869Zm-.868,0v-.869h.868v.869Zm-.869,0v-.869h.869v.869Zm-1.736,0v-.869h.868v.869Zm-1.737,0v-.869h.868v.869Zm-2.605,0h-.868v-.869h1.736v.869Zm-2.6,0v-.869h.867v.869Zm-3.475,0v-.869h.869v.869Zm-1.736,0v-.869h.868v.869Zm-.869,0v-.869h.869v.869Zm-.869,0v-.869h.869v.869Zm-1.736,0v-.869h.869v.869Zm20.844-.869v-.868h.868v.868Zm-1.737,0v-.868h.868v.868Zm-.868,0v-.868h.868v.868Zm-.869,0v-.868h.869v.868Zm-1.736,0v-.868h.868v.868Zm-1.737,0v-.868h.868v.868Zm-.868,0v-.868h.868v.868Zm-.869,0v-.868h.869v.868Zm-.868,0v-.868h.868v.868Zm-1.737,0v-.868h.869v.868Zm-1.736,0v-.868h.869v.868Zm-.869,0v-.868h.869v.868Zm-1.736,0v-.868h.869v.868Zm-1.736,0v-.868h.868v.868Zm-.869,0v-.868h.869v.868Zm-.869,0v-.868h.869v.868Zm-1.736,0v-.868h.869v.868Zm20.844-.868v-.868h.868v.868Zm-1.737,0v-.868h.868v.868Zm-.868,0v-.868h.868v.868Zm-.869,0v-.868h.869v.868Zm-1.736,0v-.868h.868v.868Zm-2.605,0v-.868h.868v.868Zm-.869,0v-.868h.869v.868Zm-2.605,0h-.867v-.868h1.736v.868Zm-1.736,0v-.868h.869v.868Zm-2.605,0v-.868h.869v.868Zm-1.736,0v-.868h.868v.868Zm-.869,0v-.868h.869v.868Zm-.869,0v-.868h.869v.868Zm-1.736,0v-.868h.869v.868Zm20.844-.868v-.869h.868v.869Zm-5.211,0v-.869h.868v.869Zm-2.605,0v-.869h.868v.869Zm-2.605,0v-.869h.869v.869Zm-.869,0v-.869h.869v.869Zm-1.736,0v-.869h.869v.869Zm-.869,0v-.869h.869v.869Zm-1.736,0v-.869h.869v.869Zm-5.211,0v-.869h.869v.869Zm20.844-.869v-.868h.868v.868Zm-.869,0v-.868h.869v.868Zm-.868,0v-.868h.868v.868Zm-.868,0v-.868h.868v.868Zm-.869,0v-.868h.869v.868Zm-.868,0h-.868v-.868h1.736v.868Zm-2.605,0v-.868h.868v.868Zm-2.605,0v-.868h.868v.868Zm-3.474,0v-.868h.869v.868Zm-2.605,0v-.868h.869v.868Zm-.868,0v-.868h.868v.868Zm-.868,0v-.868h.868v.868Zm-.869,0v-.868h.869v.868Zm-.869,0v-.868h.869v.868Zm-.867,0h-.869v-.868h1.736v.868Z" transform="translate(10932.941 1398.806)" stroke="rgba(0,0,0,0)" stroke-width="1"/>
  </g>
</svg>
