<svg xmlns="http://www.w3.org/2000/svg" xmlns:xlink="http://www.w3.org/1999/xlink" width="77" height="73" viewBox="0 0 77 73">
  <defs>
    <filter id="Rectangle_6280" x="0" y="0" width="77" height="73" filterUnits="userSpaceOnUse">
      <feOffset dy="3" input="SourceAlpha"/>
      <feGaussianBlur stdDeviation="5" result="blur"/>
      <feFlood flood-opacity="0.161"/>
      <feComposite operator="in" in2="blur"/>
      <feComposite in="SourceGraphic"/>
    </filter>
    <filter id="Rectangle_6280-2" x="0" y="0" width="77" height="73" filterUnits="userSpaceOnUse">
      <feOffset dy="3" input="SourceAlpha"/>
      <feGaussianBlur stdDeviation="5" result="blur-2"/>
      <feFlood flood-opacity="0.161" result="color"/>
      <feComposite operator="out" in="SourceGraphic" in2="blur-2"/>
      <feComposite operator="in" in="color"/>
      <feComposite operator="in" in2="SourceGraphic"/>
    </filter>
  </defs>
  <g id="Group_6691" data-name="Group 6691" transform="translate(-1417 -374)">
    <g data-type="innerShadowGroup">
      <g transform="matrix(1, 0, 0, 1, 1417, 374)" filter="url(#Rectangle_6280)">
        <rect id="Rectangle_6280-3" data-name="Rectangle 6280" width="47" height="43" transform="translate(15 12)" fill="#fff"/>
      </g>
      <g transform="matrix(1, 0, 0, 1, 1417, 374)" filter="url(#Rectangle_6280-2)">
        <rect id="Rectangle_6280-4" data-name="Rectangle 6280" width="47" height="43" transform="translate(15 12)" fill="#fff"/>
      </g>
    </g>
    <path id="Icon_material-cloud-download" data-name="Icon material-cloud-download" d="M29.025,15.06a11.239,11.239,0,0,0-21-3A9,9,0,0,0,9,30H28.5a7.478,7.478,0,0,0,.525-14.94ZM25.5,19.5,18,27l-7.5-7.5H15v-6h6v6Z" transform="translate(1438 391)" fill="#818181"/>
  </g>
</svg>
