<svg xmlns="http://www.w3.org/2000/svg" width="26.54" height="35.386" viewBox="0 0 26.54 35.386">
  <path id="Icon_fa-regular-file-video" data-name="Icon fa-regular-file-video" d="M22.116,32.069a1.109,1.109,0,0,0,1.106-1.106v-19.9H17.693a2.209,2.209,0,0,1-2.212-2.212V3.317H4.423A1.109,1.109,0,0,0,3.317,4.423v26.54a1.109,1.109,0,0,0,1.106,1.106ZM0,4.423A4.427,4.427,0,0,1,4.423,0H15.862a4.425,4.425,0,0,1,3.131,1.292l6.255,6.255a4.425,4.425,0,0,1,1.292,3.131V30.963a4.427,4.427,0,0,1-4.423,4.423H4.423A4.427,4.427,0,0,1,0,30.963ZM5.529,19.9a2.209,2.209,0,0,1,2.212-2.212h6.635A2.209,2.209,0,0,1,16.587,19.9v1.106l3.1-2.066a.876.876,0,0,1,.47-.145.849.849,0,0,1,.85.85V26.8a.849.849,0,0,1-.85.85.82.82,0,0,1-.47-.145l-3.1-2.066V26.54a2.209,2.209,0,0,1-2.212,2.212H7.741A2.209,2.209,0,0,1,5.529,26.54Z"/>
</svg>
