<svg xmlns="http://www.w3.org/2000/svg" width="30.75" height="36.176" viewBox="0 0 30.75 36.176">
  <path id="Icon_material-contact-support" data-name="Icon material-contact-support" d="M19.875,3a15.375,15.375,0,1,0,0,30.75h.9v5.426c8.791-4.233,14.471-12.662,14.471-20.8A15.385,15.385,0,0,0,19.875,3Zm1.809,26.228H18.066V25.61h3.618Zm0-6.331H18.066c0-5.879,5.426-5.426,5.426-9.044a3.618,3.618,0,1,0-7.235,0H12.64a7.235,7.235,0,0,1,14.471,0C27.11,18.375,21.684,18.827,21.684,22.9Z" transform="translate(-4.5 -3)" fill="#f48020"/>
</svg>
