<svg xmlns="http://www.w3.org/2000/svg" width="26.54" height="35.386" viewBox="0 0 26.54 35.386">
  <path id="Icon_fa-regular-file-image" data-name="Icon fa-regular-file-image" d="M4.423,32.069a1.109,1.109,0,0,1-1.106-1.106V4.423A1.109,1.109,0,0,1,4.423,3.317H15.481V8.847a2.209,2.209,0,0,0,2.212,2.212h5.529v19.9a1.109,1.109,0,0,1-1.106,1.106ZM4.423,0A4.427,4.427,0,0,0,0,4.423v26.54a4.427,4.427,0,0,0,4.423,4.423H22.116a4.427,4.427,0,0,0,4.423-4.423V10.678a4.425,4.425,0,0,0-1.292-3.131L18.985,1.292A4.409,4.409,0,0,0,15.862,0Zm6.635,17.693A2.212,2.212,0,1,0,8.847,19.9,2.212,2.212,0,0,0,11.058,17.693Zm4.783,3.241a1.111,1.111,0,0,0-1.825,0l-2.854,4.126-.822-1.32a1.111,1.111,0,0,0-1.88,0L5.695,28.164a1.1,1.1,0,0,0,.94,1.686H19.9a1.106,1.106,0,0,0,.981-.594,1.094,1.094,0,0,0-.069-1.14l-4.976-7.188Z"/>
</svg>
