<svg id="Group_3841" data-name="Group 3841" xmlns="http://www.w3.org/2000/svg" width="35.887" height="45.05" viewBox="0 0 35.887 45.05">
  <path id="Icon_awesome-link" data-name="Icon awesome-link" d="M17.535,9.953a8.156,8.156,0,0,1,.019,11.521l-.019.02L13.927,25.1A8.16,8.16,0,0,1,2.386,13.561l1.992-1.992a.858.858,0,0,1,1.465.569,9.893,9.893,0,0,0,.52,2.83.864.864,0,0,1-.2.892l-.7.7a3.866,3.866,0,1,0,5.432,5.5L14.5,18.457a3.865,3.865,0,0,0,0-5.467,4.022,4.022,0,0,0-.555-.46.861.861,0,0,1-.373-.677,2.138,2.138,0,0,1,.628-1.6l1.13-1.13a.862.862,0,0,1,1.105-.093,8.186,8.186,0,0,1,1.1.923ZM25.1,2.386a8.17,8.17,0,0,0-11.541,0L9.953,5.994l-.019.02a8.162,8.162,0,0,0,1.121,12.444.862.862,0,0,0,1.105-.093l1.13-1.13a2.138,2.138,0,0,0,.628-1.6.861.861,0,0,0-.373-.677,4.022,4.022,0,0,1-.555-.46,3.865,3.865,0,0,1,0-5.467L16.6,5.423a3.866,3.866,0,1,1,5.432,5.5l-.7.7a.864.864,0,0,0-.2.892,9.893,9.893,0,0,1,.52,2.83.858.858,0,0,0,1.465.569L25.1,13.927a8.169,8.169,0,0,0,0-11.541Z" transform="translate(0 0)"/>
  <path id="Icon_awesome-link-2" data-name="Icon awesome-link" d="M9.953,17.535A8.156,8.156,0,0,1,9.934,6.014l.019-.02,3.608-3.608A8.16,8.16,0,0,1,25.1,13.927l-1.992,1.992a.858.858,0,0,1-1.465-.569,9.893,9.893,0,0,0-.52-2.83.864.864,0,0,1,.2-.892l.7-.7a3.866,3.866,0,1,0-5.432-5.5L12.99,9.031a3.865,3.865,0,0,0,0,5.467,4.022,4.022,0,0,0,.555.46.861.861,0,0,1,.373.677,2.138,2.138,0,0,1-.628,1.6l-1.13,1.13a.862.862,0,0,1-1.105.093A8.186,8.186,0,0,1,9.953,17.535ZM2.386,25.1a8.17,8.17,0,0,0,11.541,0l3.608-3.608.019-.02A8.162,8.162,0,0,0,16.433,9.03a.862.862,0,0,0-1.105.093l-1.13,1.13a2.138,2.138,0,0,0-.628,1.6.861.861,0,0,0,.373.677,4.022,4.022,0,0,1,.555.46,3.865,3.865,0,0,1,0,5.467L10.89,22.064a3.866,3.866,0,1,1-5.432-5.5l.7-.7a.864.864,0,0,0,.2-.892,9.893,9.893,0,0,1-.52-2.83.858.858,0,0,0-1.465-.569L2.387,13.561a8.169,8.169,0,0,0,0,11.541Z" transform="translate(8.399 17.562)"/>
</svg>
