<svg xmlns="http://www.w3.org/2000/svg" width="29.488" height="29.488" viewBox="0 0 29.488 29.488">
  <path id="Icon_material-picture-as-pdf" data-name="Icon material-picture-as-pdf" d="M29.54,3H11.847A2.958,2.958,0,0,0,8.9,5.949V23.642a2.958,2.958,0,0,0,2.949,2.949H29.54a2.958,2.958,0,0,0,2.949-2.949V5.949A2.958,2.958,0,0,0,29.54,3ZM17.007,14.058A2.209,2.209,0,0,1,14.8,16.27H13.321v2.949H11.109V10.372H14.8a2.209,2.209,0,0,1,2.212,2.212Zm7.372,2.949a2.209,2.209,0,0,1-2.212,2.212H18.481V10.372h3.686a2.209,2.209,0,0,1,2.212,2.212Zm5.9-4.423H28.065v1.474h2.212V16.27H28.065v2.949H25.854V10.372h4.423ZM13.321,14.058H14.8V12.584H13.321ZM5.949,8.9H3V29.54a2.958,2.958,0,0,0,2.949,2.949H26.591V29.54H5.949Zm14.744,8.109h1.474V12.584H20.693Z" transform="translate(-3 -3)"/>
</svg>
