<svg xmlns="http://www.w3.org/2000/svg" xmlns:xlink="http://www.w3.org/1999/xlink" width="335.755" height="335.755" viewBox="0 0 335.755 335.755">
  <defs>
    <linearGradient id="linear-gradient" x1="0.5" x2="0.5" y2="1" gradientUnits="objectBoundingBox">
      <stop offset="0" stop-color="#ffdf00"/>
      <stop offset="1" stop-color="#e27202"/>
    </linearGradient>
  </defs>
  <g id="Group_4556" data-name="Group 4556" transform="translate(12427.51 -1260.447)">
    <rect id="Rectangle_4195" data-name="Rectangle 4195" width="335.755" height="335.755" transform="translate(-12427.51 1260.447)" fill="#fff"/>
    <path id="Union_1" data-name="Union 1" d="M-9435.1-407.874v-11.752h11.752v11.752Zm-11.752,0v-11.752h11.752v11.752Zm-11.752,0v-11.752h11.752v11.752Zm-11.752,0v-11.752h11.752v11.752Zm-11.752,0v-11.752h11.752v11.752Zm-11.752,0v-11.752h11.752v11.752Zm-70.51,0h-11.747v-11.752h23.5v11.752Zm-23.5,0h-11.749v-11.752h23.5v11.752Zm-35.253,0v-11.752h11.752v11.752Zm-23.5,0v-11.752h11.752v11.752Zm-11.752,0v-11.752h11.752v11.752Zm-11.752,0v-11.752h11.752v11.752Zm-11.752,0v-11.752h11.752v11.752Zm-11.752,0v-11.752h11.752v11.752Zm-11.752,0h-11.75v-11.752h23.5v11.752Zm270.286-11.752v-11.752h11.752v11.752Zm-35.256,0v-11.752h11.752v11.752Zm-11.752,0v-11.752h11.752v11.752Zm-11.752,0v-11.752h11.752v11.752Zm-23.5,0v-11.752h11.752v11.752Zm-11.752,0v-11.752h11.752v11.752Zm-11.752,0v-11.752h11.752v11.752Zm-11.752,0v-11.752h11.752v11.752Zm-35.254,0v-11.752h11.752v11.752Zm-35.253,0v-11.752h11.752v11.752Zm-23.5,0v-11.752h11.752v11.752Zm-70.51,0v-11.752h11.752v11.752Zm282.036-11.752V-443.13h11.752v11.752Zm-23.5,0V-443.13h11.752v11.752Zm-11.752,0V-443.13h11.752v11.752Zm-82.262,0V-443.13h11.752v11.752Zm-70.507,0V-443.13h11.752v11.752Zm-23.5,0V-443.13h11.752v11.752Zm-23.5,0V-443.13h11.752v11.752Zm-11.752,0V-443.13h11.752v11.752Zm-11.752,0V-443.13h11.752v11.752Zm-23.5,0V-443.13h11.752v11.752ZM-9435.1-443.13v-11.752h11.752v11.752Zm-11.752,0v-11.752h11.752v11.752Zm-11.752,0v-11.752h11.752v11.752Zm-11.752,0v-11.752h11.752v11.752Zm-11.752,0v-11.752h11.752v11.752Zm-23.5,0v-11.752h11.752v11.752Zm-23.5,0v-11.752h11.752v11.752Zm-11.752,0v-11.752h11.752v11.752Zm-23.5,0h-11.747v-11.752h23.5v11.752Zm-47,0v-11.752h11.752v11.752Zm-11.752,0v-11.752h11.752v11.752Zm-23.5,0v-11.752h11.752v11.752Zm-23.5,0v-11.752h11.752v11.752Zm-11.752,0v-11.752h11.752v11.752Zm-11.752,0v-11.752h11.752v11.752Zm-23.5,0v-11.752h11.752v11.752Zm258.532-11.752v-11.752h11.752v11.752Zm-23.5,0v0h-23.5v-11.752h23.5v-23.5h11.752v11.75h11.752v-11.75h11.752v11.752H-9458.6v11.75h-11.752v11.75Zm-35.254,0v-11.752h11.752v11.752Zm-11.752,0v0h-11.752v-11.752h11.752v-23.5h11.752v35.251Zm-23.5,0v0h-23.5v-11.752h23.5v-23.5h11.752v35.251Zm-35.254,0v-11.75h-11.749v-11.752h11.749v-11.75h11.752v35.251Zm-35.253,0v-11.752h11.752v11.752Zm-23.5,0v-35.251h11.752v35.251Zm-23.5,0v-11.752h11.752v11.752Zm-11.752,0v-11.752h11.752v11.752Zm-11.752,0v-11.752h11.752v11.752Zm-23.5,0v-35.251h23.5v11.752h-11.75v23.5Zm282.036-11.75v-23.5h11.752v23.5Zm-11.752-11.75v-11.752h11.752v11.752Zm-58.758,0v-11.752h11.752v11.752Zm-58.76,0h-11.747v-11.752h23.5v11.752Zm-47,0v-11.752h11.752v11.752Zm-11.752,0v-11.752h11.752v11.752Zm-35.254,0v-11.752h11.752v11.752Zm-11.752,0v-11.752h11.752v11.752Zm-11.752,0v-11.752h11.752v11.752Zm-11.752,0v-11.752h11.752v11.752Zm223.278-11.752v-11.752h11.752v11.752Zm-11.752,0v-11.752h11.752v11.752Zm-47.006,0v-11.752h11.752v11.752Zm-35.256,0v-11.752h11.752v11.752Zm-35.251,0v-11.752h11.752v11.752Zm-23.5,0v-11.752h11.752v11.752Zm164.521-11.752v-11.752h11.752v11.752Zm-23.5,0v-11.752h11.752v11.752Zm-11.752,0h-11.75v-11.752h23.5v11.752Zm-23.5,0v-11.752h11.752v11.752Zm-11.752,0v-11.752h11.752v11.752Zm-11.752,0v-11.752h11.752v11.752Zm-11.752,0v-11.752h11.752v11.752Zm-11.752,0h-11.747v-11.752h23.5v11.752Zm-70.507,0h-11.75v-11.752h23.5v11.752Zm-58.758,0v-11.752h11.752v11.752Zm-23.5,0v-11.752h11.752v11.752Zm282.036-11.752v-11.752h11.752v11.752Zm-47.008,0v-11.752h11.752v11.752Zm-11.752,0v-11.752h11.752v11.752Zm-23.5,0v-11.752h11.752v11.752Zm-35.256,0v-11.752h11.752v11.752Zm-23.5,0v-11.752h11.752v11.752Zm-23.5,0v-11.752h11.752v11.752Zm-11.752,0v-11.752h11.752v11.752Zm-23.5,0v-11.752h11.752v11.752Zm-35.254,0v-11.752h11.752v11.752Zm-47.006,0v-11.752h11.752v11.752Zm282.036-11.752v-11.752h11.752v11.752Zm-11.752,0v-11.752h11.752v11.752Zm-23.5,0v-11.752h11.752v11.752Zm-11.752,0v-11.752h11.752v11.752Zm-11.752,0h-11.75v-11.752h23.5v11.752Zm-23.5,0v-11.752h11.752v11.752Zm-23.5,0v-11.752h11.752v11.752Zm-23.5,0v-11.752h11.752v11.752Zm-35.251,0v-11.752h11.752v11.752Zm-23.5,0v-11.752h11.752v11.752Zm-23.5,0v-11.752h11.752v11.752Zm-11.752,0v-11.752h11.752v11.752Zm-58.758,0v-11.752h11.752v11.752Zm270.284-11.752v-23.5h11.752v0h11.752v11.752H-9435.1v11.75Zm-23.5,0v-11.752h11.752v-11.75h11.752v11.752H-9458.6v11.75Zm-23.5,0v-11.75h-11.75v11.75h-11.752v0h-11.752v-11.752h11.752v-11.75h11.752v0h23.5v0h11.752v11.752h-11.752v11.75Zm-82.257,0v-11.752h11.747v-11.75h11.752v11.752h-11.747v11.75Zm-23.5,0v-11.752h11.749v-11.75h11.752v11.752h-11.749v11.75Zm-35.256,0v-11.75h-11.75v-11.752h11.752v11.75h11.75v11.752Zm-35.254,0v-11.752h11.752v-11.75h11.752v11.752h-11.752v11.75Zm-23.5,0v-11.752h11.752v-11.75h11.752v11.752h-11.752v11.75Zm-11.752,0h-11.75v-23.5h11.752v11.75h11.75v11.752Zm164.521-11.75v-11.752h11.752v11.752Zm-11.752,0v-11.752h11.752v11.752Zm-58.755,0v-11.752h11.752v11.752Zm176.272-11.752v-11.752h11.752v11.752Zm-58.76,0v-11.752h11.752v11.752Zm-23.5,0v-11.752h11.752v11.752Zm-11.752,0v-11.752h11.752v11.752Zm-11.752,0v-11.752h11.752v11.752Zm-47.006,0h-11.749v-11.752h23.5v11.752Zm-23.5,0v-11.752h11.752v11.752Zm-23.5,0v-11.752h11.752v11.752Zm-35.254,0v-11.752h11.752v11.752Zm-11.752,0v-11.752h11.752v11.752Zm-35.254,0v-11.752h11.752v11.752Zm282.036-11.752v-11.752h11.752v11.752Zm-11.752,0v-11.752h11.752v11.752Zm-23.5,0v-11.752h11.752v11.752Zm-11.752,0v-11.752h11.752v11.752Zm-11.752,0h-11.75v-11.752h23.5v11.752Zm-23.5,0v-11.752h11.752v11.752Zm-11.752,0v-11.752h11.752v11.752Zm-11.752,0v-11.752h11.752v11.752Zm-11.752,0v-11.752h11.752v11.752Zm-11.752,0h-11.747v-11.752h23.5v11.752Zm-23.5,0v-11.752h11.752v11.752Zm-23.5,0v-11.752h11.752v11.752Zm-11.752,0v-11.752h11.752v11.752Zm-23.5,0v-11.752h11.752v11.752Zm-11.752,0v-11.752h11.752v11.752Zm-11.752,0v-11.752h11.752v11.752Zm-47.006,0v-11.752h11.752v11.752Zm270.284-11.752V-595.9h11.752v11.752Zm-47.008,0V-595.9h11.752v11.752Zm-23.5,0V-595.9h11.752v11.752Zm-11.752,0V-595.9h11.752v11.752Zm-35.256,0V-595.9h11.752v11.752Zm-47,0V-595.9h11.752v11.752Zm-11.752,0V-595.9h11.752v11.752Zm-11.752,0V-595.9h11.752v11.752Zm-47.006,0V-595.9h11.752v11.752Zm235.03-11.752v-11.752h11.752V-595.9Zm-23.5,0v-11.752h11.752V-595.9Zm-23.5,0v-11.752h11.752V-595.9Zm-23.5,0v-11.752h11.752V-595.9Zm-23.5,0v-11.752h11.752V-595.9Zm-23.5,0h-11.747v-11.752h23.5V-595.9Zm-35.251,0v-11.752h11.752V-595.9Zm-11.752,0v-11.752h11.752V-595.9Zm-11.752,0v-11.752h11.752V-595.9Zm-11.752,0h-11.75v-11.752h23.5V-595.9Zm-35.254,0v-11.752h11.752V-595.9Zm-11.752,0v-11.752h11.752V-595.9Zm-11.752,0v-11.752h11.752V-595.9Zm-11.752,0h-11.75v-11.752h23.5V-595.9Zm176.272-11.752v0h-11.752V-619.4h11.752V-631.15h11.752v23.5Zm-23.5,0v-23.5h11.752v23.5Zm-23.5,0v-23.5h11.752v23.5ZM-9435.1-619.4V-631.15h11.752V-619.4Zm-11.752,0V-631.15h11.752V-619.4Zm-11.752,0V-631.15h11.752V-619.4Zm-11.752,0V-631.15h11.752V-619.4Zm-11.752,0V-631.15h11.752V-619.4Zm-11.752,0h-11.75V-631.15h23.5V-619.4Zm-105.761,0V-631.15h11.752V-619.4Zm-23.5,0V-631.15h11.752V-619.4Zm-23.5,0V-631.15h11.752V-619.4Zm-11.752,0V-631.15h11.752V-619.4Zm-11.752,0V-631.15h11.752V-619.4Zm-11.752,0V-631.15h11.752V-619.4Zm-11.752,0V-631.15h11.752V-619.4Zm-11.752,0h-11.75V-631.15h23.5V-619.4Zm270.286-11.754V-642.9h11.752v11.75Zm-70.51,0V-642.9h11.752v11.75Zm-23.5,0V-642.9h11.752v11.75Zm-11.752,0V-642.9h11.752v11.75Zm-23.5,0V-642.9h11.752v11.75Zm-35.251,0V-642.9h11.752v11.75Zm-47.006,0V-642.9h11.752v11.75Zm-70.51,0V-642.9h11.752v11.75ZM-9435.1-642.9v-11.752h11.752V-642.9Zm-23.5,0v-11.752h11.752V-642.9Zm-11.752,0v-11.752h11.752V-642.9Zm-11.752,0v-11.752h11.752V-642.9Zm-23.5,0v-11.752h11.752V-642.9Zm-23.5,0v-11.752h11.752V-642.9Zm-35.256,0h-11.747v-11.752h23.5V-642.9Zm-35.251,0v-11.752h11.752V-642.9Zm-47.006,0v-11.752h11.752V-642.9Zm-23.5,0v-11.752h11.752V-642.9Zm-11.752,0v-11.752h11.752V-642.9Zm-11.752,0v-11.752h11.752V-642.9Zm-23.5,0v-11.752h11.752V-642.9Zm282.036-11.752v-11.752h11.752v11.752Zm-23.5,0v-11.752h11.752v11.752Zm-11.752,0v-11.752h11.752v11.752Zm-11.752,0v-11.752h11.752v11.752Zm-23.5,0v-11.752h11.752v11.752Zm-23.5,0v-11.752h11.752v11.752Zm-11.752,0v-11.752h11.752v11.752Zm-11.752,0v-11.752h11.752v11.752Zm-11.752,0v-11.752h11.752v11.752Zm-23.5,0v-11.752h11.752v11.752Zm-23.5,0v-11.752h11.752v11.752Zm-11.752,0v-11.752h11.752v11.752Zm-23.5,0v-11.752h11.752v11.752Zm-23.5,0v-11.752h11.752v11.752Zm-11.752,0v-11.752h11.752v11.752Zm-11.752,0v-11.752h11.752v11.752Zm-23.5,0v-11.752h11.752v11.752Zm282.036-11.752v-11.752h11.752v11.752Zm-23.5,0v-11.752h11.752v11.752Zm-11.752,0v-11.752h11.752v11.752Zm-11.752,0v-11.752h11.752v11.752Zm-23.5,0v-11.752h11.752v11.752Zm-35.256,0v-11.752h11.752v11.752Zm-11.752,0v-11.752h11.752v11.752Zm-35.254,0h-11.749v-11.752h23.5v11.752Zm-23.5,0v-11.752h11.752v11.752Zm-35.254,0v-11.752h11.752v11.752Zm-23.5,0v-11.752h11.752v11.752Zm-11.752,0v-11.752h11.752v11.752Zm-11.752,0v-11.752h11.752v11.752Zm-23.5,0v-11.752h11.752v11.752Zm282.036-11.752V-689.91h11.752v11.752Zm-70.51,0V-689.91h11.752v11.752Zm-35.256,0V-689.91h11.752v11.752Zm-35.251,0V-689.91h11.752v11.752Zm-11.755,0V-689.91h11.752v11.752Zm-23.5,0V-689.91h11.752v11.752Zm-11.752,0V-689.91h11.752v11.752Zm-23.5,0V-689.91h11.752v11.752Zm-70.51,0V-689.91h11.752v11.752ZM-9435.1-689.91v-11.752h11.752v11.752Zm-11.752,0v-11.752h11.752v11.752Zm-11.752,0v-11.752h11.752v11.752Zm-11.752,0v-11.752h11.752v11.752Zm-11.752,0v-11.752h11.752v11.752Zm-11.752,0h-11.75v-11.752h23.5v11.752Zm-35.254,0v-11.752h11.752v11.752Zm-35.256,0v-11.752h11.752v11.752Zm-47,0v-11.752h11.752v11.752Zm-35.254,0v-11.752h11.752v11.752Zm-11.752,0v-11.752h11.752v11.752Zm-11.752,0v-11.752h11.752v11.752Zm-11.752,0v-11.752h11.752v11.752Zm-11.752,0v-11.752h11.752v11.752Zm-11.752,0h-11.75v-11.752h23.5v11.752Z" transform="translate(-2690.229 1982.25)" stroke="rgba(0,0,0,0)" stroke-width="1" fill="url(#linear-gradient)"/>
  </g>
</svg>
