<svg xmlns="http://www.w3.org/2000/svg" width="31.987" height="32.883" viewBox="0 0 31.987 32.883">
  <path id="Icon_material-settings" data-name="Icon material-settings" d="M32.215,21.652a12.117,12.117,0,0,0,.1-1.61,9.894,9.894,0,0,0-.12-1.61l3.477-2.706a.839.839,0,0,0,.206-1.045L32.591,8.995a.836.836,0,0,0-1.01-.377l-4.093,1.644a12.1,12.1,0,0,0-2.775-1.61L24.1,4.3a.829.829,0,0,0-.822-.7H16.7a.811.811,0,0,0-.8.7l-.617,4.35a12.366,12.366,0,0,0-2.775,1.61L8.408,8.618a.818.818,0,0,0-1.01.377L4.127,14.681a.779.779,0,0,0,.206,1.045l3.477,2.706a9.528,9.528,0,0,0-.034,3.22L4.3,24.358A.839.839,0,0,0,4.092,25.4l3.288,5.686a.837.837,0,0,0,1.01.377l4.093-1.644a12.1,12.1,0,0,0,2.775,1.61l.617,4.35a.842.842,0,0,0,.822.7h6.577a.8.8,0,0,0,.8-.7l.617-4.35a11.747,11.747,0,0,0,2.775-1.61l4.093,1.644a.818.818,0,0,0,1.01-.377L35.863,25.4a.793.793,0,0,0-.206-1.045l-3.442-2.706ZM19.986,26.207a6.166,6.166,0,1,1,6.166-6.166A6.184,6.184,0,0,1,19.986,26.207Z" transform="translate(-3.992 -3.6)" fill="#f48020"/>
</svg>
