<svg xmlns="http://www.w3.org/2000/svg" xmlns:xlink="http://www.w3.org/1999/xlink" width="77" height="73" viewBox="0 0 77 73">
  <defs>
    <filter id="Rectangle_6280" x="0" y="0" width="77" height="73" filterUnits="userSpaceOnUse">
      <feOffset dy="3" input="SourceAlpha"/>
      <feGaussianBlur stdDeviation="5" result="blur"/>
      <feFlood flood-opacity="0.161"/>
      <feComposite operator="in" in2="blur"/>
      <feComposite in="SourceGraphic"/>
    </filter>
    <filter id="Rectangle_6280-2" x="0" y="0" width="77" height="73" filterUnits="userSpaceOnUse">
      <feOffset dy="3" input="SourceAlpha"/>
      <feGaussianBlur stdDeviation="5" result="blur-2"/>
      <feFlood flood-opacity="0.161" result="color"/>
      <feComposite operator="out" in="SourceGraphic" in2="blur-2"/>
      <feComposite operator="in" in="color"/>
      <feComposite operator="in" in2="SourceGraphic"/>
    </filter>
  </defs>
  <g id="Group_6690" data-name="Group 6690" transform="translate(-1370 -374)">
    <g data-type="innerShadowGroup">
      <g transform="matrix(1, 0, 0, 1, 1370, 374)" filter="url(#Rectangle_6280)">
        <rect id="Rectangle_6280-3" data-name="Rectangle 6280" width="47" height="43" transform="translate(15 12)" fill="#fff"/>
      </g>
      <g transform="matrix(1, 0, 0, 1, 1370, 374)" filter="url(#Rectangle_6280-2)">
        <rect id="Rectangle_6280-4" data-name="Rectangle 6280" width="47" height="43" transform="translate(15 12)" fill="#fff"/>
      </g>
    </g>
    <path id="Icon_material-analytics" data-name="Icon material-analytics" d="M28.5,4.5H7.5a3.009,3.009,0,0,0-3,3v21a3.009,3.009,0,0,0,3,3h21a3.009,3.009,0,0,0,3-3V7.5A3.009,3.009,0,0,0,28.5,4.5Zm-15,21h-3V18h3Zm6,0h-3V21h3Zm0-7.5h-3V15h3Zm6,7.5h-3v-15h3Z" transform="translate(1390.5 390.5)" fill="#818181"/>
  </g>
</svg>
