<svg id="noun-social-media-6425175" xmlns="http://www.w3.org/2000/svg" width="32.537" height="32.537" viewBox="0 0 32.537 32.537">
  <path id="Path_7244" data-name="Path 7244" d="M8.567,12.634a4.043,4.043,0,0,0,2.424-.807l3,3a9.091,9.091,0,0,1,.837-.837l-3-3a4.039,4.039,0,0,0,.759-1.832h4.78v.887H18.55V7.088H17.367v.887h-4.78a4.065,4.065,0,1,0-4.019,4.659Z" transform="translate(-4.5 -4.5)"/>
  <path id="Path_7245" data-name="Path 7245" d="M45.729,44.234a4.043,4.043,0,0,0-2.424.807l-3-3a9.093,9.093,0,0,1-.837.837l3,3a4.039,4.039,0,0,0-.759,1.832H36.923v-.887H35.74V49.78h1.183v-.887h4.787a4.065,4.065,0,1,0,4.019-4.659Z" transform="translate(-17.259 -19.831)"/>
  <path id="Path_7246" data-name="Path 7246" d="M31.85,32.4a8.175,8.175,0,0,0,.58-.583l.008-.008q.267-.3.5-.62l.025-.034q.222-.306.415-.633c.015-.025.031-.049.045-.074.118-.2.225-.414.326-.628.019-.041.041-.082.06-.124.089-.2.168-.406.241-.615.02-.058.044-.114.063-.172.064-.2.117-.4.166-.6.018-.072.04-.142.055-.215.043-.2.073-.411.1-.62.01-.074.026-.146.034-.221a8.218,8.218,0,0,0,.046-.861,8.134,8.134,0,1,0-16.269,0,8.218,8.218,0,0,0,.046.861c.008.075.024.147.034.221.028.209.058.417.1.62.016.073.038.143.055.215.049.2.1.405.166.6.019.058.043.114.063.172.073.209.152.415.242.616.019.041.04.081.059.122.1.215.208.425.326.63.014.025.03.049.044.073q.194.327.416.634l.025.034q.237.323.5.62l.008.008a8.177,8.177,0,0,0,.58.583h0a8.1,8.1,0,0,0,10.932,0Zm-5.6-9.709a3.122,3.122,0,1,1-3.122,3.122A3.122,3.122,0,0,1,26.252,22.687Zm.132,10.649a6.923,6.923,0,0,1-4.832-1.964,6,6,0,0,1,9.664,0A6.923,6.923,0,0,1,26.384,33.335Z" transform="translate(-10.116 -10.116)"/>
  <path id="Path_7247" data-name="Path 7247" d="M42.874,14.831l3-3a4.04,4.04,0,0,0,1.829.758V17.37h-.887v1.183h2.958V17.37h-.887V12.587a4.071,4.071,0,1,0-3.849-1.6l-3,3A9.078,9.078,0,0,1,42.874,14.831Z" transform="translate(-19.831 -4.5)"/>
  <path id="Path_7248" data-name="Path 7248" d="M13.994,39.467l-3,3a4.04,4.04,0,0,0-1.835-.759V36.928h.887V35.745H7.085v1.183h.887v4.784a4.071,4.071,0,1,0,3.855,1.595l3-3A9.079,9.079,0,0,1,13.994,39.467Z" transform="translate(-4.5 -17.261)"/>
</svg>
