<svg xmlns="http://www.w3.org/2000/svg" width="26.54" height="26.54" viewBox="0 0 26.54 26.54">
  <path id="Icon_material-text-snippet" data-name="Icon material-text-snippet" d="M30.17,12.477,23.048,5.355A2.946,2.946,0,0,0,20.969,4.5H7.449A2.958,2.958,0,0,0,4.5,7.449V28.091A2.958,2.958,0,0,0,7.449,31.04H28.091a2.958,2.958,0,0,0,2.949-2.949V14.57A2.958,2.958,0,0,0,30.17,12.477ZM10.4,10.4H20.719v2.949H10.4ZM25.142,25.142H10.4V22.193H25.142Zm0-5.9H10.4V16.3H25.142Z" transform="translate(-4.5 -4.5)"/>
</svg>
