<svg xmlns="http://www.w3.org/2000/svg" width="35.386" height="35.386" viewBox="0 0 35.386 35.386">
  <path id="Icon_awesome-link" data-name="Icon awesome-link" d="M22.573,12.813A10.5,10.5,0,0,1,22.6,27.644l-.025.026-4.644,4.644A10.505,10.505,0,0,1,3.072,17.457l2.565-2.565a1.1,1.1,0,0,1,1.886.733,12.735,12.735,0,0,0,.67,3.644,1.112,1.112,0,0,1-.261,1.148l-.9.9A4.976,4.976,0,1,0,14.019,28.4l4.644-4.644a4.975,4.975,0,0,0,0-7.038,5.178,5.178,0,0,0-.715-.592,1.108,1.108,0,0,1-.48-.871,2.753,2.753,0,0,1,.808-2.06l1.455-1.455a1.11,1.11,0,0,1,1.423-.12,10.539,10.539,0,0,1,1.418,1.189Zm9.741-9.741a10.517,10.517,0,0,0-14.857,0L12.813,7.716l-.025.026a10.507,10.507,0,0,0,1.443,16.02,1.11,1.11,0,0,0,1.423-.12l1.455-1.455a2.753,2.753,0,0,0,.808-2.06,1.108,1.108,0,0,0-.48-.871,5.177,5.177,0,0,1-.715-.592,4.975,4.975,0,0,1,0-7.038l4.644-4.644a4.976,4.976,0,1,1,6.992,7.082l-.9.9a1.112,1.112,0,0,0-.261,1.148,12.736,12.736,0,0,1,.67,3.644,1.1,1.1,0,0,0,1.886.733l2.565-2.565a10.516,10.516,0,0,0,0-14.857Z" transform="translate(0 0)"/>
</svg>
