<svg xmlns="http://www.w3.org/2000/svg" width="29.052" height="37.352" viewBox="0 0 29.052 37.352">
  <g id="noun-vcard-1631479" transform="translate(0 0)">
    <path id="Path_7249" data-name="Path 7249" d="M43.222,11.777v0l-5.95-5.95h0L36.444,5H15V42.352H44.052V12.607ZM36.594,6.326l6.131,6.131H36.594Zm6.628,35.2H15.83v-6.64H43.222ZM15.83,34.052V5.83H35.764v7.458h7.458V34.052Z" transform="translate(-15 -5)"/>
    <path id="Path_7250" data-name="Path 7250" d="M37.808,84.3l-1.552-4.755h.663l.741,2.343c.2.642.381,1.22.508,1.778h.014c.134-.55.332-1.15.543-1.771l.8-2.349h.656l-1.7,4.755Z" transform="translate(-27.434 -48.606)"/>
    <path id="Path_7251" data-name="Path 7251" d="M49.892,84.033a3.049,3.049,0,0,1-1.255.226,2.222,2.222,0,0,1-2.349-2.405,2.367,2.367,0,0,1,2.483-2.5,2.545,2.545,0,0,1,1.128.212l-.147.5a2.235,2.235,0,0,0-.96-.2,1.768,1.768,0,0,0-1.855,1.962,1.728,1.728,0,0,0,1.827,1.911,2.46,2.46,0,0,0,1-.2Z" transform="translate(-33.302 -48.496)"/>
    <path id="Path_7252" data-name="Path 7252" d="M56.826,79.543h2.561v.515H57.44v1.58h1.8v.508h-1.8V84.3h-.614Z" transform="translate(-39.467 -48.606)"/>
    <path id="Path_7253" data-name="Path 7253" d="M26.5,31.36a1.8,1.8,0,0,0-1.8,1.8v9.376a1.8,1.8,0,0,0,1.8,1.8h1.4v-.7a1.047,1.047,0,0,1-.362-.782,1.168,1.168,0,0,1,2.329,0,1.04,1.04,0,0,1-.334.756v.723H41v-.7a1.047,1.047,0,0,1-.362-.782,1.168,1.168,0,0,1,2.33,0,1.039,1.039,0,0,1-.334.756v.723H43.9a1.8,1.8,0,0,0,1.8-1.8V33.163a1.8,1.8,0,0,0-1.8-1.8H26.5Zm3.561.886.007.007a1.916,1.916,0,0,1,2.084,1.682,5.42,5.42,0,0,1-.21,1.308c-.016,0-.021-.025-.027-.062v-.012a.877.877,0,0,0-.125-.393.472.472,0,0,0-.039-.05s0,0,0,0l-.014-.016a.658.658,0,0,0-.162-.123c-.434-.137-.89-.317-1.249-.471l-.039-.016h0c-.365-.157-.616-.278-.616-.278a1.671,1.671,0,0,0,.187.237,0,0,0,0,0,0,0,.573.573,0,0,1,.039.043c.012.011.023.025.034.037l.011.011,0,0c.016.016.032.031.048.05l0,0,.053.053c.018.021.038.039.059.059a1.7,1.7,0,0,1-.288-.018h0l-.034-.007h0l-.036-.009h0l0,0a1.361,1.361,0,0,1-.847-.822s0,0,0,0v0c-.051.06-.1.12-.142.181l-.032.045a.455.455,0,0,0-.032.046.444.444,0,0,0-.029.043,0,0,0,0,0,0,0,3.446,3.446,0,0,0-.394.838v0l-.014.045c-.1-.091-.193-.272-.193-.735A1.846,1.846,0,0,1,30.059,32.246Zm5.4.97H42.4a.112.112,0,0,1,.111.111v.8a.112.112,0,0,1-.111.111H35.462a.115.115,0,0,1-.121-.111v-.8A.114.114,0,0,1,35.462,33.216Zm0,1.589h8.246a.112.112,0,0,1,.111.111v.8a.112.112,0,0,1-.111.111H35.462a.115.115,0,0,1-.121-.111v-.8A.114.114,0,0,1,35.462,34.805Zm0,1.609h5.712a.122.122,0,0,1,.122.111v.8a.122.122,0,0,1-.122.111H35.462a.115.115,0,0,1-.121-.111v-.8A.114.114,0,0,1,35.462,36.414Zm-4.19.476c.087-.028.012.194.012.249,0,.021,0,.039,0,.06a2.864,2.864,0,0,0,.31.292c.694.571,1.872.624,2.251,1.411a9.372,9.372,0,0,1,.439,2.017,32.034,32.034,0,0,1-3.98.242,31.34,31.34,0,0,1-4.406-.3,8.326,8.326,0,0,1,.457-1.913c.4-.779,1.655-.939,2.352-1.51a3.045,3.045,0,0,0,.256-.231c0-.023,0-.045,0-.071s.009-.114.011-.171a1.528,1.528,0,0,0,1.114.531,1.562,1.562,0,0,0,1.182-.609Zm4.19,1.213h7.16a.111.111,0,0,1,.11.112v.8a.111.111,0,0,1-.11.11h-7.16a.114.114,0,0,1-.121-.11v-.8A.114.114,0,0,1,35.462,38.1Z" transform="translate(-20.671 -20.42)"/>
  </g>
</svg>
