<svg xmlns="http://www.w3.org/2000/svg" xmlns:xlink="http://www.w3.org/1999/xlink" width="77" height="73" viewBox="0 0 77 73">
  <defs>
    <filter id="Rectangle_6280" x="0" y="0" width="77" height="73" filterUnits="userSpaceOnUse">
      <feOffset dy="3" input="SourceAlpha"/>
      <feGaussianBlur stdDeviation="5" result="blur"/>
      <feFlood flood-opacity="0.161"/>
      <feComposite operator="in" in2="blur"/>
      <feComposite in="SourceGraphic"/>
    </filter>
    <filter id="Rectangle_6280-2" x="0" y="0" width="77" height="73" filterUnits="userSpaceOnUse">
      <feOffset dy="3" input="SourceAlpha"/>
      <feGaussianBlur stdDeviation="5" result="blur-2"/>
      <feFlood flood-opacity="0.161" result="color"/>
      <feComposite operator="out" in="SourceGraphic" in2="blur-2"/>
      <feComposite operator="in" in="color"/>
      <feComposite operator="in" in2="SourceGraphic"/>
    </filter>
  </defs>
  <g id="Group_6688" data-name="Group 6688" transform="translate(-1276 -374)">
    <g data-type="innerShadowGroup">
      <g transform="matrix(1, 0, 0, 1, 1276, 374)" filter="url(#Rectangle_6280)">
        <path id="Rectangle_6280-3" data-name="Rectangle 6280" d="M5,0H47a0,0,0,0,1,0,0V43a0,0,0,0,1,0,0H5a5,5,0,0,1-5-5V5A5,5,0,0,1,5,0Z" transform="translate(15 12)" fill="#fff"/>
      </g>
      <g transform="matrix(1, 0, 0, 1, 1276, 374)" filter="url(#Rectangle_6280-2)">
        <path id="Rectangle_6280-4" data-name="Rectangle 6280" d="M5,0H47a0,0,0,0,1,0,0V43a0,0,0,0,1,0,0H5a5,5,0,0,1-5-5V5A5,5,0,0,1,5,0Z" transform="translate(15 12)" fill="#fff"/>
      </g>
    </g>
    <path id="Icon_material-preview" data-name="Icon material-preview" d="M28.5,4.5H7.5a3,3,0,0,0-3,3v21a3,3,0,0,0,3,3h21a3.009,3.009,0,0,0,3-3V7.5A3,3,0,0,0,28.5,4.5Zm0,24H7.5v-18h21Zm-8.25-9A2.25,2.25,0,1,1,18,17.25,2.247,2.247,0,0,1,20.25,19.5ZM18,13.5a9.668,9.668,0,0,0-9,6,9.75,9.75,0,0,0,18,0A9.668,9.668,0,0,0,18,13.5Zm0,9.75a3.75,3.75,0,1,1,3.75-3.75A3.75,3.75,0,0,1,18,23.25Z" transform="translate(1296.5 389.5)" fill="#818181"/>
  </g>
</svg>
