<svg id="Group_4530" data-name="Group 4530" xmlns="http://www.w3.org/2000/svg" xmlns:xlink="http://www.w3.org/1999/xlink" width="52.68" height="52.68" viewBox="0 0 52.68 52.68">
  <defs>
    <clipPath id="clip-path">
      <path id="Path_7227" data-name="Path 7227" d="M672.5,31.726a26.34,26.34,0,1,0,26.34-26.34,26.34,26.34,0,0,0-26.34,26.34" transform="translate(-672.495 -5.386)" fill="#43c553"/>
    </clipPath>
  </defs>
  <g id="Group_3806" data-name="Group 3806">
    <g id="Group_3805" data-name="Group 3805" clip-path="url(#clip-path)">
      <path id="Path_7243" data-name="Path 7243" d="M0,0H52.68V52.68H0Z" transform="translate(0 0)" fill="#26b53c"/>
    </g>
  </g>
  <path id="Path_7228" data-name="Path 7228" d="M727.665,33.591a16.711,16.711,0,0,0-26.3,20.155L699,62.4l8.858-2.323a16.7,16.7,0,0,0,7.985,2.033h.007a16.711,16.711,0,0,0,11.82-28.522m-11.82,25.7h-.006a13.871,13.871,0,0,1-7.068-1.936l-.507-.3-5.256,1.379,1.4-5.123-.33-.525a13.889,13.889,0,1,1,11.765,6.506m7.618-10.4c-.417-.209-2.47-1.219-2.853-1.358s-.661-.209-.939.209-1.078,1.358-1.322,1.637-.487.313-.9.1a11.4,11.4,0,0,1-3.357-2.072,12.573,12.573,0,0,1-2.323-2.891c-.244-.418-.026-.644.183-.852.188-.187.417-.488.626-.731a2.853,2.853,0,0,0,.417-.7.768.768,0,0,0-.035-.731c-.1-.209-.939-2.263-1.287-3.1-.339-.814-.683-.7-.94-.716s-.522-.015-.8-.015a1.533,1.533,0,0,0-1.113.523,4.679,4.679,0,0,0-1.461,3.482,8.118,8.118,0,0,0,1.7,4.318c.209.279,2.944,4.494,7.132,6.3a24.208,24.208,0,0,0,2.38.879,5.722,5.722,0,0,0,2.63.165,4.3,4.3,0,0,0,2.818-1.985,3.485,3.485,0,0,0,.243-1.985c-.1-.174-.382-.279-.8-.487" transform="translate(-688.654 -19.597)" fill="#fff" fill-rule="evenodd"/>
</svg>
